# Blender v2.83.0 OBJ File: 'modules.blend'
# www.blender.org
mtllib e.mtl
o e_Plane.002
v 1.500000 0.000000 -1.500000
v -1.500000 0.000000 -1.500000
v 1.500000 0.000000 1.500000
v -1.500000 0.000000 1.500000
v -0.000000 0.000000 -1.500000
v 0.000000 0.000000 1.500000
v 0.750000 0.000000 1.500000
v 0.750000 0.000000 -1.500000
v -0.750000 0.000000 -1.500000
v -0.750000 0.000000 1.500000
v 1.500000 0.000000 -0.000000
v -1.500000 0.000000 0.000000
v 0.000000 0.000000 0.000000
v 0.750000 0.000000 -0.000000
v -0.750000 0.000000 0.000000
v -1.500000 0.000000 0.750000
v 0.000000 0.000000 0.750000
v 0.750000 0.000000 0.750000
v -0.750000 0.000000 0.750000
v 1.500000 0.000000 0.750000
v 1.500000 0.000000 -0.750000
v -1.500000 0.000000 -0.750000
v -0.000000 0.000000 -0.750000
v 0.750000 0.000000 -0.750000
v -0.750000 0.000000 -0.750000
v 1.125000 0.000000 1.500000
v 1.125000 0.000000 -1.500000
v 1.125000 0.000000 -0.000000
v 1.125000 0.000000 0.750000
v 1.125000 0.000000 -0.750000
v -1.500000 0.000000 1.125000
v 0.000000 0.000000 1.125000
v 0.750000 0.000000 1.125000
v -0.750000 0.000000 1.125000
v 1.500000 0.000000 1.125000
v 1.125000 0.000000 1.125000
v -1.125000 0.000000 -1.500000
v -1.125000 0.000000 1.500000
v -1.125000 0.000000 0.000000
v -1.125000 0.000000 0.750000
v -1.125000 0.000000 -0.750000
v -1.125000 0.000000 1.125000
v 1.500000 0.000000 -1.125000
v -1.500000 0.000000 -1.125000
v -0.000000 0.000000 -1.125000
v 0.750000 0.000000 -1.125000
v -0.750000 0.000000 -1.125000
v 1.125000 0.000000 -1.125000
v -1.125000 0.000000 -1.125000
v 1.500000 3.000000 -1.125000
v 1.500000 3.000000 -1.500000
v -1.125000 3.000000 -1.500000
v -1.500000 3.000000 -1.500000
v -1.500000 3.000000 1.125000
v -1.500000 3.000000 1.500000
v 1.125000 3.000000 1.500000
v 1.500000 3.000000 1.500000
v -0.750000 3.000000 1.500000
v 0.000000 3.000000 1.500000
v 0.000000 3.000000 1.125000
v 0.750000 3.000000 1.500000
v 0.750000 3.000000 1.125000
v -1.125000 3.000000 1.500000
v -0.750000 3.000000 1.125000
v -1.500000 3.000000 -0.750000
v -1.500000 3.000000 0.000000
v -1.500000 3.000000 0.750000
v -1.500000 3.000000 -1.125000
v 1.125000 3.000000 -1.500000
v 1.125000 3.000000 1.125000
v 1.500000 3.000000 1.125000
v -1.125000 3.000000 1.125000
v -1.125000 3.000000 0.000000
v -1.125000 3.000000 0.750000
v -1.125000 3.000000 -0.750000
v -1.125000 3.000000 -1.125000
v 1.125000 3.000000 -1.125000
vt 0.875000 0.250000
vt 0.875000 0.125000
vt 0.875000 0.125000
vt 0.875000 0.250000
vt 0.000000 0.000000
vt 0.000000 0.000000
vt 0.000000 0.000000
vt 0.000000 0.000000
vt 0.000000 0.000000
vt 0.000000 0.000000
vt 0.000000 0.000000
vt 0.000000 0.000000
vt 0.875000 0.875000
vt 0.875000 0.750000
vt 0.875000 0.750000
vt 0.875000 0.875000
vt 0.500000 0.250000
vt 0.750000 0.250000
vt 0.750000 0.500000
vt 0.500000 0.500000
vt 0.125000 0.250000
vt 0.250000 0.250000
vt 0.250000 0.500000
vt 0.125000 0.500000
vt 0.125000 0.125000
vt 0.000000 0.125000
vt 0.000000 0.125000
vt 0.125000 0.125000
vt 0.750000 0.750000
vt 0.500000 0.750000
vt 0.250000 0.750000
vt 0.125000 0.750000
vt 0.000000 0.000000
vt 0.000000 0.000000
vt 0.000000 0.000000
vt 0.000000 0.000000
vt 0.875000 0.000000
vt 0.875000 0.000000
vt 0.250000 0.125000
vt 0.500000 0.125000
vt 0.750000 0.125000
vt 0.000000 0.250000
vt 0.000000 0.500000
vt 0.000000 0.750000
vt 0.125000 0.000000
vt 0.125000 0.000000
vt 0.125000 0.875000
vt 0.000000 0.875000
vt 0.750000 0.875000
vt 0.500000 0.875000
vt 0.250000 0.875000
vt 0.000000 0.000000
vt 0.000000 0.000000
vt 0.000000 0.000000
vt 0.000000 0.000000
vt 0.875000 0.500000
vt 0.000000 0.000000
vt 0.000000 0.000000
vt 0.750000 0.000000
vt 0.000000 0.000000
vt 0.000000 0.000000
vt 0.500000 0.000000
vt 0.250000 0.000000
vt 0.000000 0.000000
vt 0.000000 0.000000
vt 1.000000 0.875000
vt 1.000000 1.000000
vt 0.875000 1.000000
vt 0.250000 0.875000
vt 0.500000 0.875000
vt 0.500000 1.000000
vt 0.250000 1.000000
vt 0.125000 0.875000
vt 0.125000 1.000000
vt 0.750000 0.875000
vt 0.750000 1.000000
vt 1.000000 0.250000
vt 1.000000 0.500000
vt 0.875000 0.500000
vt 1.000000 0.750000
vt 1.000000 0.125000
vt 0.000000 0.875000
vt 0.000000 1.000000
vt 0.000000 0.000000
vt 1.000000 0.000000
vt 0.000000 0.000000
vt 0.000000 0.000000
vt 0.000000 0.000000
vt 0.000000 0.000000
vt 0.000000 0.000000
vt 0.000000 0.000000
vt 0.000000 0.000000
vt 0.000000 0.000000
vt 0.000000 0.000000
vt 0.000000 0.000000
vt 0.000000 0.000000
vt 0.000000 0.000000
vt 0.000000 0.000000
vn 1.0000 0.0000 -0.0000
vn 0.0000 0.0000 1.0000
vn 0.0000 1.0000 0.0000
vn -1.0000 0.0000 0.0000
vn -0.0000 0.0000 -1.0000
usemtl None
s off
f 41/1/1 49/2/1 76/3/1 75/4/1
f 7/5/2 26/6/2 56/7/2 61/8/2
f 3/9/1 35/10/1 71/11/1 57/12/1
f 42/13/1 40/14/1 74/15/1 72/16/1
f 23/17/3 25/18/3 15/19/3 13/20/3
f 30/21/3 24/22/3 14/23/3 28/24/3
f 24/22/3 23/17/3 13/20/3 14/23/3
f 48/25/2 43/26/2 50/27/2 77/28/2
f 13/20/3 15/19/3 19/29/3 17/30/3
f 28/24/3 14/23/3 18/31/3 29/32/3
f 14/23/3 13/20/3 17/30/3 18/31/3
f 38/33/2 10/34/2 58/35/2 63/36/2
f 49/2/1 37/37/1 52/38/1 76/3/1
f 46/39/3 45/40/3 23/17/3 24/22/3
f 48/25/3 46/39/3 24/22/3 30/21/3
f 45/40/3 47/41/3 25/18/3 23/17/3
f 43/26/3 48/25/3 30/21/3 21/42/3
f 11/43/3 28/24/3 29/32/3 20/44/3
f 21/42/3 30/21/3 28/24/3 11/43/3
f 27/45/4 48/25/4 77/28/4 69/46/4
f 20/44/3 29/32/3 36/47/3 35/48/3
f 17/30/3 19/29/3 34/49/3 32/50/3
f 29/32/3 18/31/3 33/51/3 36/47/3
f 18/31/3 17/30/3 32/50/3 33/51/3
f 16/52/4 31/53/4 54/54/4 67/55/4
f 19/29/3 40/14/3 42/13/3 34/49/3
f 47/41/3 49/2/3 41/1/3 25/18/3
f 15/19/3 39/56/3 40/14/3 19/29/3
f 25/18/3 41/1/3 39/56/3 15/19/3
f 12/57/4 16/52/4 67/55/4 66/58/4
f 9/59/3 37/37/3 49/2/3 47/41/3
f 4/60/2 38/33/2 63/36/2 55/61/2
f 5/62/3 9/59/3 47/41/3 45/40/3
f 27/45/3 8/63/3 46/39/3 48/25/3
f 8/63/3 5/62/3 45/40/3 46/39/3
f 6/64/2 7/5/2 61/8/2 59/65/2
f 72/16/3 54/66/3 55/67/3 63/68/3
f 62/69/3 60/70/3 59/71/3 61/72/3
f 70/73/3 62/69/3 61/72/3 56/74/3
f 60/70/3 64/75/3 58/76/3 59/71/3
f 75/4/3 65/77/3 66/78/3 73/79/3
f 73/79/3 66/78/3 67/80/3 74/15/3
f 76/3/3 68/81/3 65/77/3 75/4/3
f 71/82/3 70/73/3 56/74/3 57/83/3
f 74/15/3 67/80/3 54/66/3 72/16/3
f 64/75/3 72/16/3 63/68/3 58/76/3
f 51/84/3 69/46/3 77/28/3 50/27/3
f 52/38/3 53/85/3 68/81/3 76/3/3
f 43/86/1 1/87/1 51/84/1 50/88/1
f 22/89/4 12/57/4 66/58/4 65/90/4
f 1/87/5 27/91/5 69/92/5 51/84/5
f 40/14/1 39/56/1 73/79/1 74/15/1
f 37/93/5 2/94/5 53/95/5 52/96/5
f 35/48/5 36/47/5 70/73/5 71/82/5
f 39/56/1 41/1/1 75/4/1 73/79/1
f 31/53/4 4/60/4 55/61/4 54/54/4
f 32/50/5 34/49/5 64/75/5 60/70/5
f 26/6/2 3/9/2 57/12/2 56/7/2
f 36/47/5 33/51/5 62/69/5 70/73/5
f 33/51/5 32/50/5 60/70/5 62/69/5
f 2/94/4 44/97/4 68/98/4 53/95/4
f 10/34/2 6/64/2 59/65/2 58/35/2
f 44/97/4 22/89/4 65/90/4 68/98/4
f 34/49/5 42/13/5 72/16/5 64/75/5
