# Blender v2.83.0 OBJ File: 'modules.blend'
# www.blender.org
mtllib i.mtl
o i_Plane.003
v 1.500000 0.000000 -1.500000
v -1.500000 0.000000 -1.500000
v 1.500000 0.000000 1.500000
v -1.500000 0.000000 1.500000
v -0.000000 0.000000 -1.500000
v 0.000000 0.000000 1.500000
v 0.750000 0.000000 1.500000
v 0.750000 0.000000 -1.500000
v -0.750000 0.000000 -1.500000
v -0.750000 0.000000 1.500000
v 1.500000 0.000000 -0.000000
v -1.500000 0.000000 0.000000
v 0.000000 0.000000 0.000000
v 0.750000 0.000000 -0.000000
v -0.750000 0.000000 0.000000
v -1.500000 0.000000 0.750000
v 0.000000 0.000000 0.750000
v 0.750000 0.000000 0.750000
v -0.750000 0.000000 0.750000
v 1.500000 0.000000 0.750000
v -1.500000 0.000000 1.125000
v 0.000000 0.000000 1.125000
v 0.750000 0.000000 1.125000
v -0.750000 0.000000 1.125000
v 1.500000 0.000000 1.125000
v -1.125000 0.000000 -1.500000
v -1.125000 0.000000 1.500000
v -1.125000 0.000000 0.000000
v -1.125000 0.000000 0.750000
v -1.125000 0.000000 1.125000
v 1.125000 0.000000 1.500000
v 1.125000 0.000000 -1.500000
v 1.125000 0.000000 -0.000000
v 1.125000 0.000000 0.750000
v 1.125000 0.000000 1.125000
v 1.500000 3.000000 -0.000000
v 1.500000 3.000000 -1.500000
v -1.125000 3.000000 -1.500000
v -1.500000 3.000000 -1.500000
v -1.500000 3.000000 1.125000
v -1.500000 3.000000 1.500000
v 1.125000 3.000000 1.500000
v 1.500000 3.000000 1.500000
v -0.750000 3.000000 1.500000
v 0.000000 3.000000 1.500000
v 0.000000 3.000000 1.125000
v 0.750000 3.000000 1.500000
v 0.750000 3.000000 1.125000
v -1.125000 3.000000 1.500000
v -0.750000 3.000000 1.125000
v 1.500000 3.000000 0.750000
v -1.500000 3.000000 0.000000
v 1.125000 3.000000 -0.000000
v -1.500000 3.000000 0.750000
v 1.500000 3.000000 1.125000
v 1.125000 3.000000 0.750000
v 1.125000 3.000000 1.125000
v -1.125000 3.000000 1.125000
v -1.125000 3.000000 0.000000
v -1.125000 3.000000 0.750000
v 1.125000 3.000000 -1.500000
vt 0.250000 0.875000
vt 0.500000 0.875000
vt 0.500000 0.875000
vt 0.250000 0.875000
vt 0.875000 0.875000
vt 0.875000 0.750000
vt 0.875000 0.750000
vt 0.875000 0.875000
vt 0.000000 0.000000
vt 0.000000 0.000000
vt 0.000000 0.000000
vt 0.000000 0.000000
vt 0.000000 0.000000
vt 0.000000 0.000000
vt 0.000000 0.000000
vt 0.000000 0.000000
vt 0.500000 0.000000
vt 0.750000 0.000000
vt 0.750000 0.500000
vt 0.500000 0.500000
vt 0.125000 0.000000
vt 0.250000 0.000000
vt 0.250000 0.500000
vt 0.125000 0.500000
vt 0.000000 0.000000
vt 0.000000 0.000000
vt 0.000000 0.000000
vt 0.000000 0.000000
vt 0.750000 0.750000
vt 0.500000 0.750000
vt 0.250000 0.750000
vt 0.125000 0.750000
vt 0.000000 0.000000
vt 0.000000 0.000000
vt 0.750000 0.875000
vt 0.125000 0.875000
vt 0.750000 0.875000
vt 0.875000 0.500000
vt 0.875000 0.000000
vt 0.000000 0.000000
vt 0.000000 0.000000
vt 0.000000 0.000000
vt 0.000000 0.000000
vt 0.000000 0.000000
vt 0.000000 0.000000
vt 0.000000 0.000000
vt 0.000000 0.000000
vt 0.000000 0.000000
vt 0.000000 0.000000
vt 0.000000 0.000000
vt 0.000000 0.000000
vt 1.000000 0.875000
vt 1.000000 1.000000
vt 0.875000 1.000000
vt 0.500000 1.000000
vt 0.250000 1.000000
vt 0.125000 0.875000
vt 0.125000 1.000000
vt 0.750000 1.000000
vt 0.875000 0.000000
vt 1.000000 0.000000
vt 1.000000 0.500000
vt 0.875000 0.500000
vt 1.000000 0.750000
vt 0.000000 0.750000
vt 0.125000 0.750000
vt 0.000000 0.875000
vt 0.000000 0.500000
vt 0.125000 0.500000
vt 0.125000 0.000000
vt 0.000000 1.000000
vt 0.000000 0.000000
vt 0.000000 0.000000
vt 0.000000 0.000000
vt 0.000000 0.000000
vt 0.000000 0.000000
vt 0.000000 0.000000
vt 0.000000 0.000000
vt 0.000000 0.000000
vn -0.0000 0.0000 -1.0000
vn 1.0000 0.0000 -0.0000
vn -1.0000 0.0000 0.0000
vn 0.0000 1.0000 0.0000
vn 0.0000 0.0000 1.0000
usemtl None
s off
f 23/1/1 22/2/1 46/3/1 48/4/1
f 30/5/2 29/6/2 60/7/2 58/8/2
f 11/9/2 1/10/2 37/11/2 36/12/2
f 12/13/3 16/14/3 54/15/3 52/16/3
f 5/17/4 9/18/4 15/19/4 13/20/4
f 32/21/4 8/22/4 14/23/4 33/24/4
f 8/22/4 5/17/4 13/20/4 14/23/4
f 6/25/5 7/26/5 47/27/5 45/28/5
f 13/20/4 15/19/4 19/29/4 17/30/4
f 33/24/4 14/23/4 18/31/4 34/32/4
f 14/23/4 13/20/4 17/30/4 18/31/4
f 2/33/3 12/13/3 52/16/3 39/34/3
f 17/30/4 19/29/4 24/35/4 22/2/4
f 34/32/4 18/31/4 23/1/4 35/36/4
f 18/31/4 17/30/4 22/2/4 23/1/4
f 22/2/1 24/35/1 50/37/1 46/3/1
f 19/29/4 29/6/4 30/5/4 24/35/4
f 15/19/4 28/38/4 29/6/4 19/29/4
f 9/18/4 26/39/4 28/38/4 15/19/4
f 20/40/2 11/9/2 36/12/2 51/41/2
f 1/10/1 32/42/1 61/43/1 37/11/1
f 3/44/2 25/45/2 55/46/2 43/47/2
f 10/48/5 6/25/5 45/28/5 44/49/5
f 7/26/5 31/50/5 42/51/5 47/27/5
f 58/8/4 40/52/4 41/53/4 49/54/4
f 48/4/4 46/3/4 45/55/4 47/56/4
f 57/57/4 48/4/4 47/56/4 42/58/4
f 46/3/4 50/37/4 44/59/4 45/55/4
f 38/60/4 39/61/4 52/62/4 59/63/4
f 59/63/4 52/62/4 54/64/4 60/7/4
f 60/7/4 54/64/4 40/52/4 58/8/4
f 50/37/4 58/8/4 49/54/4 44/59/4
f 51/65/4 56/66/4 57/57/4 55/67/4
f 36/68/4 53/69/4 56/66/4 51/65/4
f 37/11/4 61/70/4 53/69/4 36/68/4
f 55/67/4 57/57/4 42/58/4 43/71/4
f 26/72/1 2/33/1 39/34/1 38/73/1
f 35/36/1 23/1/1 48/4/1 57/57/1
f 16/14/3 21/74/3 40/75/3 54/15/3
f 29/6/2 28/38/2 59/63/2 60/7/2
f 24/35/1 30/5/1 58/8/1 50/37/1
f 21/74/3 4/76/3 41/77/3 40/75/3
f 34/32/3 35/36/3 57/57/3 56/66/3
f 28/38/2 26/39/2 38/60/2 59/63/2
f 31/50/5 3/44/5 43/47/5 42/51/5
f 33/24/3 34/32/3 56/66/3 53/69/3
f 27/78/5 10/48/5 44/49/5 49/79/5
f 25/45/2 20/40/2 51/41/2 55/46/2
f 4/76/5 27/78/5 49/79/5 41/77/5
f 32/21/3 33/24/3 53/69/3 61/70/3
